<?xml version="1.0" encoding="utf-8"?>
<!-- Generator: Adobe Illustrator 18.0.0, SVG Export Plug-In . SVG Version: 6.00 Build 0)  -->
<!DOCTYPE svg PUBLIC "-//W3C//DTD SVG 1.1//EN" "http://www.w3.org/Graphics/SVG/1.1/DTD/svg11.dtd">
<svg version="1.1" id="Capa_1" xmlns:sketch="http://www.bohemiancoding.com/sketch/ns"
	 xmlns="http://www.w3.org/2000/svg" xmlns:xlink="http://www.w3.org/1999/xlink" x="0px" y="0px" width='32px' height='32px'
	 enable-background="new 0 0 612 792" xml:space="preserve">
<title>icon 69 thermometer half</title>
<desc>Created with Sketch.</desc>
<g>
	<path d="M325.1,533.7c0-1.9,0-1.9,0-3.8V338.6c0-11.5-7.6-19.1-19.1-19.1s-19.1,9.6-19.1,19.1v191.2c0,1.9,0,1.9,0,3.8
		c-23,7.7-38.2,28.7-38.2,53.5c0,32.5,24.9,57.4,57.4,57.4s57.4-24.9,57.4-57.4C363.4,562.4,348.1,541.4,325.1,533.7z" fill='#fff'/>
	<path d="M363.4,510.8V166.5c0-32.5-24.9-57.4-57.4-57.4s-57.4,26.8-57.4,57.4v344.2c-23,17.2-38.2,45.9-38.2,76.5
		c0,53.5,42.1,95.6,95.6,95.6s95.6-42.1,95.6-95.6C401.6,556.6,386.3,528,363.4,510.8z M306,663.8c-42.1,0-76.5-34.4-76.5-76.5
		c0-28.7,15.3-53.5,38.2-66.9V166.5c0-21,17.2-38.2,38.2-38.2s38.2,17.2,38.2,38.2v353.8c23,13.4,38.2,38.2,38.2,66.9
		C382.5,629.3,348.1,663.8,306,663.8z" fill='#fff'/>
</g>
</svg>
